<?xml version="1.0" encoding="UTF-8"?>
<svg version="1.1" viewBox="0 0 2048 2048" width="1280" height="1280" xmlns="http://www.w3.org/2000/svg">
<path transform="translate(964)" d="m0 0h136v1l56 6 41 6 43 8 43 10 42 12 37 12 38 14 29 12 42 19 19 10 16 8 24 13 27 16 22 14 17 11 19 13 12 9 14 10 16 13 13 10 11 9 14 12 15 13 13 12 7 7 8 7 27 27 7 8 10 10 7 8 24 28 13 16 26 34 24 34 21 33 9 15 15 26 14 26 17 34 16 36 14 35 11 30 13 40 12 43 10 44 8 44 7 53 3 31 2 1v152l-2 1-4 41-6 45-6 33-7 34-11 44-12 40-14 41-11 28-13 31-18 39-9 17-8 16-12 22-14 24-8 13-10 15-9 14-11 16-12 17-9 12-14 18-10 13-12 14-9 11-10 11-7 8-12 13-11 11-7 8-13 13h-2v2l-8 7-13 13-8 7-10 9-11 9-11 10-11 8-12 10-13 10-19 14-19 13-10 7-20 13-21 13-24 14-18 10-27 14-16 8-32 15-39 16-30 11-36 12-42 12-37 9-34 7-35 6-46 6-39 4-5 1h-133v-1l-22-3-44-5-38-6-36-7-39-9-53-15-47-16-45-18-34-15-48-24-46-26-24-15-27-18-17-12-14-10-16-12-16-13-14-11-14-12-10-9-11-9-9-9-8-7-13-13-2-1v-2l-4-2-6-6v-2h-2l-7-8-17-17-7-8-12-14-10-11-9-11-13-16-11-14-12-16-12-17-14-20-16-25-9-14-14-24-13-23-23-45-16-36-10-24-13-34-15-44-13-47-9-38-8-41-6-39-5-44-2-21-1-2v-133l2-14 5-47 7-46 7-36 10-43 14-49 16-47 13-33 11-26 14-30 18-36 12-22 10-17 15-25 24-36 8-11 12-17 12-16 13-16 11-14 8-10h2l2-4 9-10 9-11 9-9 1-2h2l2-4h2l2-4 36-36h2v-2l8-7 8-8 11-9 11-10 11-9 13-11 13-10 18-14 18-13 16-11 18-12 17-11 21-13 23-13 18-10 33-17 32-15 28-12 39-15 47-16 42-12 32-8 38-8 49-8 41-5zm51 361-17 3-18 6-15 8-11 8-13 12-7 8-7 10-10 19-5 15-3 22-1 23v405h-426l-23 2-16 4-13 5-13 7-11 8-12 11-8 9-7 10-10 19-5 15-3 20v19l2 15 5 18 8 17 7 11 13 15 9 8 13 9 15 8 15 5 17 3 9 1 432 1 2 1v417l2 28 4 18 6 15 9 16 8 10 11 12 13 10 18 10 21 7 20 3h17l15-2 19-6 17-8 9-6 13-10v-2l4-2 13-16 9-16 6-16 3-13 2-16 1-433 1-1 425-1 18-2 19-6 17-8 9-6 13-10v-2l4-2 13-16 9-16 6-16 4-18 1-9v-15l-3-20-5-17-8-16-6-10-9-11-10-10-15-11-21-10-16-5-16-2-20-1-410-1-1-424-2-18-4-15-5-13-10-18-11-13-9-9-15-11-21-10-16-5-14-2z"/>
</svg>
